Patient4_TMGait_0pt8_01_right_10_EMG.mot
version=1
nRows=13
nColumns=33
inDegrees=no
endheader
time	1LAddLong	2LGlutMax	3LGlutMed	4LIliopsoas	5LSemiMemb	6LBicFemLong	7LRecFem	8LVastMed	9LVastLat	10LGasMed	11LTibAnt	12lTibPost	13LPeroneusLong	14LSol	15LExtDigLong	16LFlexDigLong	17RAddLong	18RGlutMax	19RGlutMed	20RIliopsoas	21RSemiMemb	22RBicFemLong	23RRecFem	24RVastMed	25RVastLat	26RGasMed	27RTibAnt	28RTibPost	29RPeroneusLong	30RSol	31RExtDigLong	32RFlexDigLong
11.347	-0.010529	-0.37109	0.032806	0.023956	0.014648	0.018616	0.18372	0.006866	-0.009918	-0.022736	0.054626	0.002136	-0.091858	-0.16541	-0.065155	0.005646	-0.005493	-0.4892	-1.1635	0.09903	0.073395	0.075073	0.28748	0.060883	0.009308	0.000763	0.17029	0.21896	0.28275	0.36865	-0.003662	-0.000916
11.348	-0.010223	-0.31036	0.040894	0.015411	0.012207	0.025177	0.17181	0.010223	-0.028076	-0.03891	0.10346	0.001373	-0.13779	-0.023193	0.31326	-0.008087	-0.068054	-0.4567	-1.6309	-0.002899	0.13214	-0.043335	0.18982	0.058746	0.023346	-0.040283	0.30182	0.22873	0.19196	0.28046	-0.004272	0.001068
11.349	-0.021515	-0.22812	0.036621	0.023804	0.022125	0.023804	0.10223	0.00824	-0.017853	-0.044098	-0.10147	0.009308	-0.13962	0.14481	0.23804	0.015717	-0.056763	-0.42435	-1.3693	-0.10361	-0.1709	-0.30167	0.041962	-0.043182	0.040894	-0.014954	0.35355	0.15106	0.40359	0.08667	0.000153	0
11.35	-0.029297	-0.22232	0.05661	0.022278	0.012665	0.015259	0.046082	0.021973	-0.031586	-0.084534	-0.055695	0.010834	-0.032501	0.13687	0.71198	0.029755	-0.042877	-0.38437	-0.49637	-0.26047	-0.19714	-0.27252	0.060425	-0.10544	-0.037079	0.040741	0.13519	-0.011139	0.57175	-0.23956	-0.001831	-0.005493
11.351	-0.027771	-0.17792	0.061798	0.009155	0.014801	0.001526	-0.014801	0.016174	-0.030212	-0.11261	0.103	0.001526	0.000916	0.1683	0.21835	0.011292	-0.029144	-0.34378	-0.021667	-0.26093	-0.031738	-0.28442	0.029297	-0.060272	-0.12573	0.020447	-0.43564	-0.087891	0.46997	-0.10559	-0.002136	0.001526
11.352	-0.030975	-0.16953	0.031281	-0.007935	0.013885	0.01297	-0.062714	0.012512	-0.043488	-0.16037	0.21042	0.010529	0.018005	0.21942	0.98007	0.021362	-0.016632	-0.47409	-1.0242	0.007172	-0.061951	-0.26413	0.08194	0.031738	-0.13504	-0.049286	-0.30609	-0.10193	0.19226	0.14603	-0.002747	-0.006409
11.353	-0.029602	-0.18616	0.023956	0.034943	0.006866	0.010681	-0.02243	0.009003	-0.035706	-0.11948	0.26886	0.010376	-0.11917	0.19409	0.91461	0.022125	-0.014496	-0.53131	-0.93826	0.13016	-0.13718	-0.11566	-0.001373	0.076447	-0.18509	-0.004883	0.13336	0.04364	-0.098724	0.12421	-0.001831	-0.016479
11.354	-0.024719	-0.054626	0.023956	0.040894	0.009918	0.007935	0.044098	0.010071	-0.029907	-0.092316	0.20676	0.016174	-0.13031	0.20096	-0.5719	-0.013123	0.014343	-0.57465	-0.89035	0.13504	-0.33478	-0.084076	-0.10635	0.044861	-0.23331	0.063324	0.18417	-0.35126	-0.013428	-0.063629	0.004425	-0.013428
11.355	-0.021667	0.004425	0.027161	0.020752	0.003357	0.008545	0.039673	0.00824	-0.036621	-0.1178	-0.13382	0.008698	-0.063477	0.15747	-0.52216	-0.007172	0.037994	-0.65979	0.1918	0.037537	-0.47562	-0.076141	-0.11932	-0.034637	-0.22583	0.070038	0.30792	0.12421	-0.061951	-0.51148	0.004883	-0.022278
11.356	-0.020905	-0.013428	-0.012665	0.020752	0.006256	0.001221	0.043182	0.002899	-0.037231	-0.088959	0.031433	0.020752	-0.077362	-0.028687	-0.88287	-0.028687	0.027618	-0.79697	0.18463	0.064545	-0.5542	0.10468	-0.24628	0.019684	-0.16388	0.050354	0.42297	0.02121	0.12482	-0.9581	-0.00351	-0.014648
11.357	-0.026398	0.036011	-0.014496	0.007477	0.013275	0.014648	-0.00473	0.004272	-0.028992	-0.030975	0.002441	0.012512	-0.10849	-0.18631	-0.72906	-0.044708	0.04425	-0.77011	-0.58853	0.093231	-0.3688	0.10834	-0.21606	-0.088654	-0.038757	0.052948	0.091553	-0.072479	0.10178	-0.77072	-0.00412	-0.017242
11.358	-0.036926	-0.021362	0.026703	-0.011292	0.002594	-0.002289	0.057983	0.010071	-0.050354	-0.027924	-0.14542	0.010834	-0.089111	-0.15411	-0.34805	-0.017548	0.077057	-0.79147	-1.1374	0.078735	-0.064697	0.12238	-0.11673	-0.091553	0.096588	0.01297	-0.37674	-0.057068	0.018005	-0.35645	-0.000305	-0.023499
11.359	0.013733	-0.031128	0.041504	-0.023804	0.010376	-0.014496	0.06073	-0.003662	-0.04364	-0.04776	-0.083618	0.021362	-0.093842	0.001984	0.040283	-0.011444	0.039825	-0.80994	-0.52521	0.018463	0.046997	0.19913	-0.13336	0.1178	0.16312	-0.01297	-0.44678	-0.03067	0.05722	-0.34531	-0.004272	-0.018768
